{"title":"This is 40 UNRATED 2012 BRRip XviD AC3-SANTi","uid":8239010,"size":2326821820,"categoryP":"video","categoryS":"movies","magnet":"?xt=urn:btih:ed822e9da82d76b4c5918207c2f064da19076a37&amp;dn=This+is+40+UNRATED+2012+BRRip+XviD+AC3-SANTi&amp;tr=udp%3A%2F%2Ftracker.openbittorrent.com%3A80&amp;tr=udp%3A%2F%2Fopen.demonii.com%3A1337&amp;tr=udp%3A%2F%2Ftracker.coppersurfer.tk%3A6969&amp;tr=udp%3A%2F%2Fexodus.desync.com%3A6969","seeders":3,"leechers":0,"uploader":"Gh0stNet","files":2,"time":1362922606,"description":"Format                           : AVI\nFormat/Info                      : Audio Video Interleave\nFormat profile                   : OpenDML\nFile size                        : 2.17 GiB\nDuration                         : 2h 17mn\nOverall bit rate                 : 2 264 Kbps\nWriting application              : VirtualDubMod 1.5.10.3 | www.virtualdub-fr.org || (build 2550/release)\nWriting library                  : VirtualDubMod build 2550/release\n\nVideo\nID                               : 0\nFormat                           : MPEG-4 Visual\nFormat profile                   : Advanced Simple@L5\nFormat settings, BVOP            : 3\nFormat settings, QPel            : No\nFormat settings, GMC             : No warppoints\nFormat settings, Matrix          : Default (MPEG)\nCodec ID                         : XVID\nCodec ID/Hint                    : XviD\nDuration                         : 2h 17mn\nBit rate                         : 1 804 Kbps\nWidth                            : 720 pixels\nHeight                           : 384 pixels\nDisplay aspect ratio             : 1.875\nFrame rate                       : 23.976 fps\nColor space                      : YUV\nChroma subsampling               : 4:2:0\nBit depth                        : 8 bits\nScan type                        : Progressive\nCompression mode                 : Lossy\nBits/(Pixel*Frame)               : 0.272\nStream size                      : 1.73 GiB (80%)\nWriting library                  : XviD 1.2.1 (UTC 2008-12-04)\n\nAudio\nID                               : 1\nFormat                           : AC-3\nFormat/Info                      : Audio Coding 3\nMode extension                   : CM (complete main)\nCodec ID                         : 2000\nDuration                         : 2h 17mn\nBit rate mode                    : Constant\nBit rate                         : 448 Kbps\nChannel(s)                       : 6 channels\nChannel positions                : Front: L C R, Side: L R, LFE\nSampling rate                    : 48.0 KHz\nBit depth                        : 16 bits\nCompression mode                 : Lossy\nStream size                      : 439 MiB (20%)\nAlignment                        : Split accross interleaves\nInterleave, duration             : 42 ms (1.00 video frame)\nInterleave, preload duration     : 500 ms","torrent":{"xt":"urn:btih:ed822e9da82d76b4c5918207c2f064da19076a37","amp;dn":"This+is+40+UNRATED+2012+BRRip+XviD+AC3-SANTi","amp;tr":["udp%3A%2F%2Ftracker.openbittorrent.com%3A80","udp%3A%2F%2Fopen.demonii.com%3A1337","udp%3A%2F%2Ftracker.coppersurfer.tk%3A6969","udp%3A%2F%2Fexodus.desync.com%3A6969"],"infoHash":"ed822e9da82d76b4c5918207c2f064da19076a37","infoHashBuffer":{"type":"Buffer","data":[237,130,46,157,168,45,118,180,197,145,130,7,194,240,100,218,25,7,106,55]},"announce":[],"urlList":[]}}